<svg width="22" height="21" viewBox="0 0 22 21" fill="none" xmlns="http://www.w3.org/2000/svg">
<path d="M14.9999 16V14H15.9999C16.621 13.9997 17.2335 13.8547 17.7889 13.5766C18.3442 13.2984 18.8272 12.8948 19.1995 12.3976C19.5718 11.9005 19.8232 11.3234 19.9338 10.7123C20.0444 10.1011 20.0111 9.47254 19.8367 8.87644C19.6622 8.28034 19.3513 7.73306 18.9286 7.27795C18.506 6.82284 17.9831 6.47242 17.4015 6.25444C16.8199 6.03645 16.1956 5.95691 15.5779 6.02209C14.9602 6.08728 14.3662 6.29541 13.8429 6.63C13.5949 5.57362 13.0651 4.60426 12.3099 3.82513C11.5546 3.046 10.6022 2.48627 9.55407 2.20552C8.50592 1.92478 7.40126 1.93353 6.35769 2.23085C5.31412 2.52817 4.37071 3.10293 3.62791 3.89392C2.8851 4.68492 2.37071 5.66256 2.1395 6.72273C1.90828 7.78291 1.9689 8.88595 2.3149 9.9144C2.6609 10.9429 3.27932 11.8582 4.10433 12.5631C4.92934 13.2679 5.93005 13.7358 6.99991 13.917V15.939C4.98102 15.6841 3.1351 14.6696 1.83779 13.1018C0.540478 11.5341 -0.11073 9.53093 0.0166885 7.50001C0.144107 5.46909 1.04058 3.56303 2.52366 2.16971C4.00675 0.776396 5.965 0.000528289 7.99991 7.49307e-07C9.42161 -0.000614564 10.8178 0.377741 12.0446 1.0961C13.2715 1.81447 14.2847 2.84687 14.9799 4.087C15.7988 3.94602 16.638 3.97665 17.4444 4.17696C18.2508 4.37727 19.0068 4.74289 19.6645 5.25065C20.3222 5.75842 20.8673 6.39726 21.2652 7.1267C21.6631 7.85613 21.9052 8.66027 21.9761 9.48815C22.047 10.316 21.9451 11.1496 21.677 11.9361C21.4089 12.7225 20.9804 13.4447 20.4185 14.0569C19.8567 14.6691 19.1739 15.1579 18.4132 15.4924C17.6526 15.8269 16.8308 15.9997 15.9999 16H14.9999ZM9.23191 16.732L10.9999 14.964L12.7679 16.732C13.1175 17.0817 13.3555 17.5271 13.4519 18.0121C13.5483 18.497 13.4988 18.9996 13.3096 19.4564C13.1203 19.9132 12.7999 20.3036 12.3888 20.5783C11.9777 20.8529 11.4943 20.9995 10.9999 20.9995C10.5055 20.9995 10.0222 20.8529 9.61106 20.5783C9.19995 20.3036 8.87952 19.9132 8.69028 19.4564C8.50104 18.9996 8.45149 18.497 8.5479 18.0121C8.64431 17.5271 8.88235 17.0817 9.23191 16.732Z" fill="#838BAA"/>
</svg>
